<svg width="65" height="94" viewBox="0 0 65 94" fill="none" xmlns="http://www.w3.org/2000/svg">
<path d="M62.1515 3.83374C55.2196 3.98601 40.2469 7.03148 35.8105 17.9952" stroke="#E5E5E5" stroke-width="3"/>
<path d="M4.8489 4.29053C12.1456 4.43789 27.9063 7.38511 32.5762 17.9951" stroke="#E5E5E5" stroke-width="3"/>
<path d="M3.92424 24.8477L3 91.0867C35.8106 86.9753 52.1855 66.538 56.6061 58.1956C61.6894 48.6024 63.5379 28.0452 61.6894 22.5637C60.9295 20.3101 56.1439 2.46359 32.5758 2.00677C13.7212 1.64131 3.92424 16.168 3.92424 24.8477Z" stroke="#E5E5E5" stroke-width="4"/>
<path d="M3 80.5794C7.77525 75.859 14.4606 64.2253 3 55.4543" stroke="#E5E5E5" stroke-width="3"/>
<path d="M3 92C12.7644 83.074 26.4345 61.0758 3 44.4907" stroke="#E5E5E5" stroke-width="3"/>
<path d="M32.9242 29.8725C32.9242 37.6058 26.5776 43.9043 18.7121 43.9043C10.8466 43.9043 4.5 37.6058 4.5 29.8725C4.5 22.1391 10.8466 15.8406 18.7121 15.8406C26.5776 15.8406 32.9242 22.1391 32.9242 29.8725Z" stroke="#E5E5E5" stroke-width="3"/>
<path d="M62.5004 29.8725C62.5004 37.6058 56.1538 43.9043 48.2883 43.9043C40.4228 43.9043 34.0762 37.6058 34.0762 29.8725C34.0762 22.1391 40.4228 15.8406 48.2883 15.8406C56.1538 15.8406 62.5004 22.1391 62.5004 29.8725Z" stroke="#E5E5E5" stroke-width="3"/>
<path fill-rule="evenodd" clip-rule="evenodd" d="M13.166 29.8725C13.166 33.4047 16.0626 36.268 19.6357 36.268C23.2088 36.268 26.1054 33.4047 26.1054 29.8725C26.1054 26.3404 23.2088 23.4771 19.6357 23.4771V29.8725L13.166 29.8725Z" fill="#E5E5E5"/>
<path fill-rule="evenodd" clip-rule="evenodd" d="M41.8184 29.8725C41.8184 29.8725 41.8184 29.8725 41.8184 29.8725C41.8184 33.4047 44.7149 36.268 48.2881 36.268C51.8612 36.268 54.7578 33.4047 54.7578 29.8725C54.7578 26.3404 51.8612 23.4771 48.2881 23.4771C48.288 23.4771 48.2879 23.4771 48.2879 23.4771V29.8725H41.8184Z" fill="#E5E5E5"/>
<path d="M33.5004 50.8862L39.9037 39.9226H27.097L33.5004 50.8862Z" fill="#E5E5E5"/>
<path d="M33.5004 50.8862L39.9037 39.9226H27.097L33.5004 50.8862Z" fill="#E5E5E5"/>
<path d="M33.4997 33.5271L36.7014 40.3794H30.298L33.4997 33.5271Z" fill="#E5E5E5"/>
<path d="M33.4997 33.5271L36.7014 40.3794H30.298L33.4997 33.5271Z" fill="#E5E5E5"/>
<path d="M33.5 26.218L39.1029 17.31H27.897L33.5 26.218Z" fill="#E5E5E5"/>
<path d="M33.5 26.218L39.1029 17.31H27.897L33.5 26.218Z" fill="#E5E5E5"/>
</svg>
